<svg width="16" height="18" viewBox="0 0 16 18" fill="#000" xmlns="http://www.w3.org/2000/svg">
<path fill-rule="evenodd" clip-rule="evenodd" d="M5 0.75C5.41421 0.75 5.75 1.08579 5.75 1.5V2.25H10.25V1.5C10.25 1.08579 10.5858 0.75 11 0.75C11.4142 0.75 11.75 1.08579 11.75 1.5V2.25122C12.1066 2.25367 12.4183 2.26104 12.6889 2.28315C13.1104 2.31759 13.498 2.39151 13.862 2.57698C14.4265 2.8646 14.8854 3.32354 15.173 3.88803C15.3585 4.25203 15.4324 4.63956 15.4669 5.06113C15.5 5.46702 15.5 5.96529 15.5 6.56901V12.931C15.5 13.5347 15.5 14.033 15.4669 14.4389C15.4324 14.8604 15.3585 15.248 15.173 15.612C14.8854 16.1765 14.4265 16.6354 13.862 16.923C13.498 17.1085 13.1104 17.1824 12.6889 17.2169C12.283 17.25 11.7847 17.25 11.181 17.25H4.81901C4.21529 17.25 3.71702 17.25 3.31113 17.2169C2.88956 17.1824 2.50203 17.1085 2.13803 16.923C1.57354 16.6354 1.1146 16.1765 0.826981 15.612C0.641513 15.248 0.56759 14.8604 0.533146 14.4389C0.499983 14.033 0.499991 13.5347 0.5 12.931V6.56903C0.499991 5.9653 0.499983 5.46703 0.533146 5.06113C0.56759 4.63956 0.641513 4.25203 0.826981 3.88803C1.1146 3.32354 1.57354 2.8646 2.13803 2.57698C2.50203 2.39151 2.88956 2.31759 3.31113 2.28315C3.58174 2.26104 3.8934 2.25367 4.25 2.25122V1.5C4.25 1.08579 4.58579 0.75 5 0.75ZM4.25 3.75132C3.91585 3.75367 3.65347 3.76017 3.43328 3.77816C3.10447 3.80503 2.93631 3.85372 2.81902 3.91349C2.53677 4.0573 2.3073 4.28677 2.16349 4.56901C2.10372 4.68631 2.05503 4.85447 2.02816 5.18328C2.00058 5.52085 2 5.95757 2 6.6V6.75H14V6.6C14 5.95757 13.9994 5.52085 13.9718 5.18328C13.945 4.85447 13.8963 4.68631 13.8365 4.56901C13.6927 4.28677 13.4632 4.0573 13.181 3.91349C13.0637 3.85372 12.8955 3.80503 12.5667 3.77816C12.3465 3.76017 12.0841 3.75367 11.75 3.75132V4.5C11.75 4.91421 11.4142 5.25 11 5.25C10.5858 5.25 10.25 4.91421 10.25 4.5V3.75H5.75V4.5C5.75 4.91421 5.41421 5.25 5 5.25C4.58579 5.25 4.25 4.91421 4.25 4.5V3.75132ZM14 8.25H2V12.9C2 13.5424 2.00058 13.9792 2.02816 14.3167C2.05503 14.6455 2.10372 14.8137 2.16349 14.931C2.3073 15.2132 2.53677 15.4427 2.81902 15.5865C2.93631 15.6463 3.10447 15.695 3.43328 15.7218C3.77085 15.7494 4.20757 15.75 4.85 15.75H11.15C11.7924 15.75 12.2292 15.7494 12.5667 15.7218C12.8955 15.695 13.0637 15.6463 13.181 15.5865C13.4632 15.4427 13.6927 15.2132 13.8365 14.931C13.8963 14.8137 13.945 14.6455 13.9718 14.3167C13.9994 13.9792 14 13.5424 14 12.9V8.25Z" fill="#000"/>
</svg>
